<svg xmlns="http://www.w3.org/2000/svg" viewBox="0 0 256 256" fill="currentColor">
  <path d="M142.8 51.9l17.4-10.1 1.8 4.6c2.1 5.5 7.8 8.7 13.6 7.7l6.5-1.1-7.5 37.5-17.5 10.1-14.3-48.7zM121 197.6l-17.4 10.1-1.8-4.6c-2.1-5.5-7.8-8.7-13.6-7.7l-6.5 1.1 7.5-37.5 17.5-10.1 14.3 48.7zM170.6 64.6l11.4-18.5 4.2 2.6c4.9 3 11.3 2.1 15.2-2.1l4.4-4.8 3 37.7-11.4 18.5-26.8-33.4zM93.2 184.9l-11.4 18.5-4.2-2.6c-4.9-3-11.3-2.1-15.2 2.1l-4.4 4.8-3-37.7 11.4-18.5 26.8 33.4zM191.9 88.9l3.8-20 5.4.5c6.3.6 11.9-3.8 13.3-10.4l1.6-7.4 14.1 35.9-3.8 20-34.4-18.6zM71.9 160.6l-3.8 20-5.4-.5c-6.3-.6-11.9 3.8-13.3 10.4l-1.6 7.4-14.1-35.9 3.8-20 34.4 18.6zM206.3 118.5l-4.9-19.7 5.3-1.3c6.2-1.5 10.1-7.6 9.3-14.4l-.9-7.7 20 33.6 4.9 19.7-33.7-10.2zM57.5 130.9l4.9 19.7-5.3 1.3c-6.2 1.5-10.1 7.6-9.3 14.4l.9 7.7-20-33.6-4.9-19.7 33.7 10.2zM209.3 152.3l-9-17.9 4.7-2.9c5.5-3.4 7.4-10.5 4.5-16.7l-3.3-6.9 22.1 30.8 9 17.9-28.1-4.3zM54.5 97.2l9 17.9-4.7 2.9c-5.5 3.4-7.4 10.5-4.5 16.7l3.3 6.9-22.1-30.8-9-17.9 28.1 4.3zM198.7 180.5l-12.9-16.2 3.9-3.9c4.6-4.5 4.9-11.8.8-17.1l-4.6-5.9 22.7 27.9 12.9 16.2-22.8-1zM64.9 68.9l12.9 16.2-3.9 3.9c-4.6 4.5-4.9 11.8-.8 17.1l4.6 5.9-22.7-27.9-12.9-16.2 22.8 1zM175.6 200.9l-15.9-13.2 2.8-4.6c3.3-5.3 2.1-12.2-2.8-16.2l-5.5-4.5 21.3 24.2 15.9 13.2-15.8 1.1zM87.8 48.5l15.9 13.2-2.8 4.6c-3.3 5.3-2.1 12.2 2.8 16.2l5.5 4.5-21.3-24.2-15.9-13.2 15.8-1.1z"/>
  <path d="M132 74.3l-4.5 23.8-21.1 12.3-21.1-12.3-4.5-23.8L96.5 59l21.1-12.3L138.7 59l-6.7 15.3zM132 181.7l-4.5-23.8-21.1-12.3-21.1 12.3-4.5 23.8 15.7 15.3 21.1 12.3 21.1-12.3-6.7-15.3zM176.8 106.2l-23.8-4.5L140.7 85l4.5-23.8 15.3-6.7 15.3 6.7 12.3 21.1-6.7 15.3-4.6 8.6zM87 143.8l23.8 4.5L123.1 171l-4.5 23.8-15.3 6.7-15.3-6.7-12.3-21.1 6.7-15.3 4.6-8.6zM178.9 141.7l-23.8 4.5-8.6-4.6-8.6-15.3 8.6-15.3 8.6-4.6 23.8 4.5 15.3 15.3-15.3 15.5zM84.9 107.3l23.8-4.5 8.6 4.6 8.6 15.3-8.6 15.3-8.6 4.6-23.8-4.5-15.3-15.3 15.3-15.5z"/>
</svg>
